HIERARCHY
ROOT hip
{
  OFFSET 0 0 0
  CHANNELS 6 Xposition Yposition Zposition Zrotation Yrotation Xrotation
  JOINT abdomen
  {
    OFFSET 0 20.6881 -0.73152
    CHANNELS 3 Zrotation Xrotation Yrotation
    JOINT chest
    {
      OFFSET 0 11.7043 -0.48768
      CHANNELS 3 Zrotation Xrotation Yrotation
      JOINT neck
      {
        OFFSET 0 22.1894 -2.19456
        CHANNELS 3 Zrotation Xrotation Yrotation
        JOINT head
        {
          OFFSET -0.24384 7.07133 1.2192
          CHANNELS 3 Zrotation Xrotation Yrotation
          JOINT leftEye
          {
            OFFSET 4.14528 8.04674 8.04672
            CHANNELS 3 Zrotation Xrotation Yrotation
            End Site
            {
              OFFSET 1 0 0
            }
          }
          JOINT rightEye
          {
            OFFSET -3.6576 8.04674 8.04672
            CHANNELS 3 Zrotation Xrotation Yrotation
            End Site
            {
              OFFSET 1 0 0
            }
          }
        }
      }
      JOINT rCollar
      {
        OFFSET -2.68224 19.2634 -4.8768
        CHANNELS 3 Zrotation Xrotation Yrotation
        JOINT rShldr
        {
          OFFSET -8.77824 -1.95073 1.46304
          CHANNELS 3 Zrotation Xrotation Yrotation
          JOINT rForeArm
          {
            OFFSET -28.1742 -1.7115 0.48768
            CHANNELS 3 Zrotation Xrotation Yrotation
            JOINT rHand
            {
              OFFSET -22.5879 0.773209 7.07136
              CHANNELS 3 Zrotation Xrotation Yrotation
              JOINT rThumb1
              {
                OFFSET -1.2192 -0.487915 3.41376
                CHANNELS 3 Zrotation Xrotation Yrotation
                JOINT rThumb2
                {
                  OFFSET -3.37035 -0.52449 3.41376
                  CHANNELS 3 Zrotation Xrotation Yrotation
                  End Site
                  {
                    OFFSET -1.78271 -1.18214 1.43049
                  }
                }
              }
              JOINT rIndex1
              {
                OFFSET -7.75947 0.938293 5.60832
                CHANNELS 3 Zrotation Xrotation Yrotation
                JOINT rIndex2
                {
                  OFFSET -2.54057 -0.884171 1.56538
                  CHANNELS 3 Zrotation Xrotation Yrotation
                  End Site
                  {
                    OFFSET -1.62519 -0.234802 1.16502
                  }
                }
              }
              JOINT rMid1
              {
                OFFSET -8.24714 1.18213 3.41376
                CHANNELS 3 Zrotation Xrotation Yrotation
                JOINT rMid2
                {
                  OFFSET -3.10165 -0.590103 1.0647
                  CHANNELS 3 Zrotation Xrotation Yrotation
                  End Site
                  {
                    OFFSET -2.48547 -0.328903 0.83742
                  }
                }
              }
              JOINT rRing1
              {
                OFFSET -8.82822 0.546677 1.51678
                CHANNELS 3 Zrotation Xrotation Yrotation
                JOINT rRing2
                {
                  OFFSET -2.60934 -0.819778 -0.0198488
                  CHANNELS 3 Zrotation Xrotation Yrotation
                  End Site
                  {
                    OFFSET -2.33842 -0.294052 0.168128
                  }
                }
              }
              JOINT rPinky1
              {
                OFFSET -8.27202 -0.0477905 -0.4584
                CHANNELS 3 Zrotation Xrotation Yrotation
                JOINT rPinky2
                {
                  OFFSET -1.82734 -0.647385 -0.700984
                  CHANNELS 3 Zrotation Xrotation Yrotation
                  End Site
                  {
                    OFFSET -1.69225 -0.51767 -0.607171
                  }
                }
              }
            }
          }
        }
      }
      JOINT lCollar
      {
        OFFSET 2.68224 19.2634 -4.8768
        CHANNELS 3 Zrotation Xrotation Yrotation
        JOINT lShldr
        {
          OFFSET 8.77824 -1.95073 1.46304
          CHANNELS 3 Zrotation Xrotation Yrotation
          JOINT lForeArm
          {
            OFFSET 28.1742 -1.7115 0.48768
            CHANNELS 3 Zrotation Xrotation Yrotation
            JOINT lHand
            {
              OFFSET 22.5879 0.773209 7.07136
              CHANNELS 3 Zrotation Xrotation Yrotation
              JOINT lThumb1
              {
                OFFSET 1.2192 -0.487915 3.41376
                CHANNELS 3 Zrotation Xrotation Yrotation
                JOINT lThumb2
                {
                  OFFSET 3.37035 -0.52449 3.41376
                  CHANNELS 3 Zrotation Xrotation Yrotation
                  End Site
                  {
                    OFFSET 1.78271 -1.18214 1.43049
                  }
                }
              }
              JOINT lIndex1
              {
                OFFSET 7.75947 0.938293 5.60832
                CHANNELS 3 Zrotation Xrotation Yrotation
                JOINT lIndex2
                {
                  OFFSET 2.54057 -0.884171 1.56538
                  CHANNELS 3 Zrotation Xrotation Yrotation
                  End Site
                  {
                    OFFSET 1.62519 -0.234802 1.16502
                  }
                }
              }
              JOINT lMid1
              {
                OFFSET 8.24714 1.18213 3.41376
                CHANNELS 3 Zrotation Xrotation Yrotation
                JOINT lMid2
                {
                  OFFSET 3.10165 -0.590103 1.0647
                  CHANNELS 3 Zrotation Xrotation Yrotation
                  End Site
                  {
                    OFFSET 2.48547 -0.328903 0.83742
                  }
                }
              }
              JOINT lRing1
              {
                OFFSET 8.82822 0.546677 1.51678
                CHANNELS 3 Zrotation Xrotation Yrotation
                JOINT lRing2
                {
                  OFFSET 2.60934 -0.819778 -0.0198488
                  CHANNELS 3 Zrotation Xrotation Yrotation
                  End Site
                  {
                    OFFSET 2.33842 -0.294052 0.168128
                  }
                }
              }
              JOINT lPinky1
              {
                OFFSET 8.27202 -0.0477905 -0.4584
                CHANNELS 3 Zrotation Xrotation Yrotation
                JOINT lPinky2
                {
                  OFFSET 1.82734 -0.647385 -0.700984
                  CHANNELS 3 Zrotation Xrotation Yrotation
                  End Site
                  {
                    OFFSET 1.69225 -0.51767 -0.607171
                  }
                }
              }
            }
          }
        }
      }
    }
  }
  JOINT rButtock
  {
    OFFSET -8.77824 4.35084 1.2192
    CHANNELS 3 Zrotation Xrotation Yrotation
    JOINT rThigh
    {
      OFFSET 0 -1.70687 -2.19456
      CHANNELS 3 Zrotation Xrotation Yrotation
      JOINT rShin
      {
        OFFSET 0 -36.8199 0.73152
        CHANNELS 3 Zrotation Xrotation Yrotation
        JOINT rFoot
        {
          OFFSET 0.73152 -45.1104 -5.12064
          CHANNELS 3 Zrotation Xrotation Yrotation
          End Site
          {
            OFFSET -1.1221 -3.69964 12.103
          }
        }
      }
    }
  }
  JOINT lButtock
  {
    OFFSET 8.77824 4.35084 1.2192
    CHANNELS 3 Zrotation Xrotation Yrotation
    JOINT lThigh
    {
      OFFSET 0 -1.70687 -2.19456
      CHANNELS 3 Zrotation Xrotation Yrotation
      JOINT lShin
      {
        OFFSET 0 -36.8199 0.73152
        CHANNELS 3 Zrotation Xrotation Yrotation
        JOINT lFoot
        {
          OFFSET -0.73152 -45.1104 -5.12064
          CHANNELS 3 Zrotation Xrotation Yrotation
          End Site
          {
            OFFSET 1.1221 -3.69964 12.103
          }
        }
      }
    }
  }
}
MOTION
Frames:	5
Frame Time:	0.00833333
62.2291 84.9057 -78.2061 0.0 0.0 0.0 -0.143207 -0.0027023 -0.00414758 -0.0395942 -0.00448408 -0.00686035 2.22962e-15 7.95139e-16 7.76504e-18 6.69966e-15 3.18055e-15 2.17421e-17 -0.0 0.0 0.0 -0.0 0.0 0.0 1.24107e-15 -8.15328e-18 1.49089e-16 2.54245e-14 -8.07563e-17 1.19271e-15 4.02042e-13 -1.22849e-13 9.54166e-15 4.59857e-12 1.05331e-13 -3.18055e-15 1.08452e-11 -3.81328e-14 2.22639e-14 1.87156e-11 -7.31528e-14 4.21423e-14 1.08509e-11 -3.69739e-14 1.27222e-14 7.73091 5.47488 0.417314 1.08445e-11 -3.80673e-14 2.22639e-14 2.90554 0.965183 0.102902 1.08494e-11 -3.79679e-14 2.3059e-14 10.2786 0.731801 0.0259123 1.08369e-11 -3.45885e-14 3.18055e-14 2.22167 -0.733487 -0.20892 1.04503e-15 -7.95915e-18 -1.49089e-16 2.14977e-14 -3.66509e-16 -7.95139e-16 4.01396e-13 1.145e-13 -9.54166e-15 4.59722e-12 -1.50679e-13 2.8625e-14 1.08464e-11 -7.77139e-14 2.22639e-14 1.87402e-11 -1.39944e-13 4.29375e-14 1.08413e-11 -7.55382e-14 3.49861e-14 -7.73091 5.47488 -0.417314 1.08465e-11 -7.82218e-14 2.54444e-14 -2.90554 0.965183 -0.102902 1.08395e-11 -7.74266e-14 2.70347e-14 -10.2786 0.731801 -0.0259123 1.08501e-11 -7.71284e-14 1.27222e-14 -2.22167 -0.733487 0.20892 -2.03217e-16 0.0 -3.88251e-19 0.331217 -2.90287 -0.0343697 -0.00599837 -0.29294 -0.0527687 -0.43937 3.19624 0.113625 2.03217e-16 0.0 3.88251e-19 -0.551099 -3.50685 0.0483553 0.00427662 0.801053 0.0368147 0.443245 2.70625 -0.104404
61.8535 83.5416 -80.0353 0.5845 -5.1826 10.6915 -0.396184 -2.57377 -0.286909 -0.176602 -0.76317 -0.103136 -1.38868 4.29425 -0.699519 3.37089 -6.9412 -0.656091 -0.0 0.0 0.0 -0.0 0.0 0.0 1.10915e-14 -3.52498e-14 -3.78537e-14 21.0023 8.18545 -3.04902 -4.5592 -2.14383 7.04093 0.00323287 -1.26208 -0.177219 -2.08887e-10 -2.00864e-10 2.61443e-10 -3.61063e-10 -3.47027e-10 4.52064e-10 -2.08883e-10 -2.00862e-10 2.61434e-10 7.73091 5.47488 0.417314 -2.08889e-10 -2.00864e-10 2.61444e-10 2.90554 0.965183 0.102902 -2.08883e-10 -2.00863e-10 2.61444e-10 10.2786 0.731801 0.0259123 -2.08896e-10 -2.0086e-10 2.61453e-10 2.22167 -0.733487 -0.20892 1.0927e-14 -3.52497e-14 -3.81406e-14 -22.0961 5.66831 3.00462 5.17386 -2.57829 -7.81891 -0.0887901 6.61832 -0.907888 2.71718e-10 -2.76465e-11 -2.84012e-10 4.64142e-10 -5.63381e-11 -4.9639e-10 2.71714e-10 -2.76437e-11 -2.84e-10 -7.73091 5.47488 -0.417314 2.7172e-10 -2.7646e-11 -2.8401e-10 -2.90554 0.965183 -0.102902 2.71712e-10 -2.76454e-11 -2.84008e-10 -10.2786 0.731801 -0.0259123 2.71722e-10 -2.76451e-11 -2.8402e-10 -2.22167 -0.733487 0.20892 -2.03217e-16 0.0 -3.88251e-19 -2.31302 -7.81784 13.101 0.115128 4.06246 0.416534 -3.96121 -9.06393 -12.4975 2.03217e-16 0.0 3.88251e-19 1.89259 -4.86965 -4.47329 -0.00556584 1.91547 -0.0275567 0.817476 -2.70886 4.22759
61.8488 83.5445 -80.0374 0.5608 -5.1984 10.7051 -0.687565 -5.29179 -0.587364 -0.324857 -1.56312 -0.204961 -2.74224 8.8348 -1.45135 6.75683 -14.2841 -1.38016 -0.0 0.0 0.0 -0.0 0.0 0.0 2.21098e-14 -7.49702e-14 -8.10482e-14 44.1912 16.7633 -6.48397 -8.81344 -4.30436 14.52 -0.00185702 -2.60148 -0.365587 -4.54262e-10 -4.27118e-10 5.49791e-10 -7.85155e-10 -7.37929e-10 9.50637e-10 -4.54259e-10 -4.27116e-10 5.49784e-10 7.73091 5.47488 0.417314 -4.54264e-10 -4.27118e-10 5.49793e-10 2.90554 0.965183 0.102902 -4.54258e-10 -4.27117e-10 5.49793e-10 10.2786 0.731801 0.0259123 -4.54271e-10 -4.27113e-10 5.49803e-10 2.22167 -0.733487 -0.20892 2.19784e-14 -7.49701e-14 -8.13247e-14 -46.1184 11.5951 6.27757 9.88436 -5.14281 -16.133 0.0514414 13.6173 -1.90995 5.64913e-10 -5.633e-11 -5.99846e-10 9.6479e-10 -1.15468e-10 -1.04845e-09 5.6491e-10 -5.63267e-11 -5.99835e-10 -7.73091 5.47488 -0.417314 5.64918e-10 -5.63285e-11 -5.99844e-10 -2.90554 0.965183 -0.102902 5.64908e-10 -5.63282e-11 -5.99843e-10 -10.2786 0.731801 -0.0259123 5.64917e-10 -5.63278e-11 -5.99852e-10 -2.22167 -0.733487 0.20892 -2.03217e-16 0.0 -3.88251e-19 -2.70319 -11.9761 27.3794 0.164777 8.66442 0.921176 -13.6776 -20.1798 -27.3095 2.03217e-16 0.0 3.88251e-19 4.24358 -6.25758 -9.2775 -0.0132358 3.09327 -0.0956528 2.10812 -8.34312 8.89801
61.838 83.5514 -80.0468 0.5034 -5.2322 10.7591 -0.97886 -7.71515 -0.859342 -0.458271 -2.28051 -0.295896 -3.84464 12.875 -2.14666 9.60756 -20.8123 -2.09029 -0.0 0.0 0.0 -0.0 0.0 0.0 3.07924e-14 -1.05733e-13 -1.13859e-13 65.8224 24.2644 -9.93961 -12.1293 -6.04384 21.2316 -0.0137669 -3.78611 -0.532691 -6.48352e-10 -6.02516e-10 7.84284e-10 -1.12062e-09 -1.04094e-09 1.35611e-09 -6.4835e-10 -6.02513e-10 7.84277e-10 7.73091 5.47488 0.417314 -6.48355e-10 -6.02515e-10 7.84287e-10 2.90554 0.965183 0.102902 -6.48348e-10 -6.02514e-10 7.84287e-10 10.2786 0.731801 0.0259123 -6.48362e-10 -6.0251e-10 7.84296e-10 2.22167 -0.733487 -0.20892 3.06908e-14 -1.05733e-13 -1.14124e-13 -68.131 16.8137 9.37386 13.4623 -7.15993 -23.6281 0.39634 19.8344 -2.87627 7.93461e-10 -8.2784e-11 -8.52081e-10 1.35494e-09 -1.68734e-10 -1.48926e-09 7.93459e-10 -8.27801e-11 -8.52071e-10 -7.73091 5.47488 -0.417314 7.93468e-10 -8.27815e-11 -8.5208e-10 -2.90554 0.965183 -0.102902 7.93457e-10 -8.27815e-11 -8.52078e-10 -10.2786 0.731801 -0.0259123 7.93464e-10 -8.27811e-11 -8.52085e-10 -2.22167 -0.733487 0.20892 -2.03217e-16 0.0 -3.88251e-19 -1.30991 -14.0983 40.456 0.138889 12.77 1.3863 -27.4003 -26.6048 -42.6002 2.03217e-16 0.0 3.88251e-19 6.13808 -7.42837 -13.584 -0.0177221 4.1443 -0.156656 4.05236 -13.2139 13.2336
61.8357 83.5478 -80.047 0.4866 -5.2051 10.7645 -1.21573 -9.40259 -1.05357 -0.549212 -2.79157 -0.359408 -4.54819 15.6715 -2.65486 11.4845 -25.3144 -2.65024 -0.0 0.0 0.0 -0.0 0.0 0.0 3.36358e-14 -1.14102e-13 -1.20712e-13 81.5025 29.3498 -12.6943 -14.1817 -7.102 25.9205 -0.0258406 -4.58395 -0.645624 -7.14232e-10 -6.50773e-10 8.84137e-10 -1.23452e-09 -1.1242e-09 1.52883e-09 -7.14231e-10 -6.5077e-10 8.84131e-10 7.73091 5.47488 0.417314 -7.14235e-10 -6.50772e-10 8.8414e-10 2.90554 0.965183 0.102902 -7.14228e-10 -6.50772e-10 8.8414e-10 10.2786 0.731801 0.0259123 -7.14241e-10 -6.50768e-10 8.8415e-10 2.22167 -0.733487 -0.20892 3.35557e-14 -1.14102e-13 -1.2096e-13 -83.8076 20.4419 11.6905 15.6382 -8.35531 -28.9125 0.770812 24.1166 -3.60719 8.60391e-10 -1.03664e-10 -9.45318e-10 1.46887e-09 -2.0734e-10 -1.6519e-09 8.6039e-10 -1.0366e-10 -9.45309e-10 -7.73091 5.47488 -0.417314 8.604e-10 -1.03661e-10 -9.45318e-10 -2.90554 0.965183 -0.102902 8.60388e-10 -1.03661e-10 -9.45316e-10 -10.2786 0.731801 -0.0259123 8.60395e-10 -1.03661e-10 -9.45321e-10 -2.22167 -0.733487 0.20892 -2.03217e-16 0.0 -3.88251e-19 0.325171 -14.4242 49.6093 0.0799481 15.6377 1.72252 -39.0657 -28.2718 -53.9443 2.03217e-16 0.0 3.88251e-19 7.34087 -8.19939 -16.5921 -0.0195536 4.87842 -0.199603 5.86282 -16.4989 16.378
